<?xml version="1.0" encoding="UTF-8" standalone="no"?>
<!-- Created with Inkscape (http://www.inkscape.org/) -->

<svg
   xmlns:dc="http://purl.org/dc/elements/1.1/"
   xmlns:cc="http://creativecommons.org/ns#"
   xmlns:rdf="http://www.w3.org/1999/02/22-rdf-syntax-ns#"
   xmlns:svg="http://www.w3.org/2000/svg"
   xmlns="http://www.w3.org/2000/svg"
   version="1.1"
   width="300"
   height="63.822044"
   viewBox="0 0 300 63.822045"
   id="svg8014">
  <defs
     id="defs8016">
    <clipPath
       id="clipPath7749">
      <path
         d="m 39.4,722.327 158.281,0 0,33.673 -158.281,0 0,-33.673 z"
         id="path7751" />
    </clipPath>
  </defs>
  <metadata
     id="metadata8019">
    <rdf:RDF>
      <cc:Work
         rdf:about="">
        <dc:format>image/svg+xml</dc:format>
        <dc:type
           rdf:resource="http://purl.org/dc/dcmitype/StillImage" />
        <dc:title></dc:title>
      </cc:Work>
    </rdf:RDF>
  </metadata>
  <g
     transform="translate(-205.86696,-500.45119)"
     id="layer1">
    <g
       transform="matrix(1.8953647,0,0,-1.8953647,131.18938,1933.3469)"
       id="g7745">
      <g
         clip-path="url(#clipPath7749)"
         id="g7747">
        <g
           transform="translate(81.8232,725.0103)"
           id="g7753">
          <path
             d="m 0,0 -0.007,6.549 0,2.933 c 0.004,2.404 -0.146,4.677 -2.183,6.578 -1.372,1.323 -2.769,1.888 -4.67,1.888 -1.843,0 -4.613,-0.926 -6.365,-2.953 l 0,15.481 -5.743,0 0,-1.342 c 0.02,-0.003 1.897,0.304 1.897,-1.69 l 0.002,-27.436 c 0,-0.864 -2.567,-1.274 -2.586,-1.277 l 0,-0.996 9.033,0 0,0.996 c -0.018,0.003 -2.577,0.301 -2.577,1.269 l 0,11.843 c 0.109,0.648 0.47,1.339 0.839,1.789 1.431,1.636 3.224,1.88 4.164,1.88 1.105,0 2.036,-0.396 2.932,-1.248 1.236,-1.149 1.545,-2.837 1.545,-5.549 l 0,-8.707 c 0,-0.864 -2.568,-1.274 -2.586,-1.277 l 0,-0.996 8.883,0 0,0.996 C 2.56,-1.266 0,-0.968 0,0 m 46.065,0 0,17.468 c 0,0.027 -0.046,0.045 -0.051,0.063 l -5.713,0 0,-1.342 c 0.019,-0.002 1.906,0.193 1.906,-1.802 l 0,-14.379 c 0,-0.864 -2.558,-1.274 -2.577,-1.277 l 0,-0.996 9.035,0 0,0.996 c -0.018,0.003 -2.6,0.301 -2.6,1.269 m -2.27,21.351 c 1.266,0 2.293,1.026 2.293,2.293 0,1.266 -1.027,2.292 -2.293,2.292 -1.266,0 -2.293,-1.026 -2.293,-2.292 0,-1.267 1.027,-2.293 2.293,-2.293 M 69.502,1.397 C 69.351,1.584 69.236,2.15 69.163,3.003 l 0,27.473 -5.743,0 0,-1.342 c 0.019,-0.003 1.818,0.179 1.89,-1.691 l 0,-10.134 c -1.487,0.423 -3.092,0.638 -4.776,0.638 -2.733,0 -5.211,-1.049 -6.975,-2.949 -2.109,-2.109 -3.271,-4.931 -3.271,-7.942 0,0 -0.098,-9.739 8.494,-9.739 2.376,0 5.479,1.288 6.984,2.642 l 1.326,-2.252 4.965,1.446 0,0.947 c -2.109,0 -2.555,1.297 -2.555,1.297 m -4.199,2.158 c 0,-0.483 -0.04,-0.833 -0.265,-1.509 -0.45,-1.17 -2.416,-2.446 -4.873,-2.431 -3.536,0.021 -5.996,3.312 -5.996,8.616 0,2.509 0.589,4.74 1.965,6.223 1.281,1.33 2.923,1.61 4.077,1.61 3.001,0 4.23,-1.505 4.698,-2.407 0.394,-0.701 0.394,-1.554 0.394,-2.18 l 0,-7.922 z M 89.265,0.826 c -0.143,0.178 -0.253,0.698 -0.326,1.479 l -0.023,1.19 0,9.584 c 0,1.36 -0.077,2.399 -1.064,3.386 0,0 -0.996,1.476 -6.151,1.476 -2.201,-0.086 -4.994,-1.049 -6.125,-2.816 -0.919,-1.436 -0.44,-2.547 0.339,-3.253 0.394,-0.338 0.906,-0.545 1.467,-0.545 1.244,0 2.253,1.008 2.253,2.253 0,0.505 -0.169,0.972 -0.453,1.348 0.154,0.291 1.259,2.143 4.315,1.606 2.6,-0.456 1.784,-6.202 1.784,-6.202 -1.116,-0.343 -9.332,-2.963 -10.568,-6.299 -1.626,-4.393 1.397,-5.966 1.422,-5.977 0.879,-0.491 1.839,-0.739 2.855,-0.739 3.212,0 6.036,2.419 6.665,2.998 0.465,-1.817 1.66,-2.79 3.311,-2.816 l 0,-0.007 0.02,0.007 c 0.016,0 0.031,-0.002 0.047,-0.002 l 0,0.02 2.788,1.064 0,0.947 c -2.108,0 -2.556,1.298 -2.556,1.298 M 85.236,2.482 C 85.236,1.393 82.938,0.53 81.579,0.194 81.251,0.112 80.926,0.07 80.613,0.07 c -1.558,0 -2.734,1.066 -2.734,2.478 0,2.666 3.139,3.975 5.431,4.929 0.768,0.322 1.448,0.603 1.926,0.896 l 0,-5.891 z M 34.728,18.113 c -2.097,0 -4.523,-2.295 -5.781,-4.102 l -0.596,3.52 -4.842,0 0,-1.342 c 0.019,-0.002 1.907,0.193 1.907,-1.802 l 0,-14.379 c 0,-0.864 -2.559,-1.274 -2.576,-1.277 l 0,-0.996 9.032,0 0,0.996 C 31.855,-1.266 29.273,-0.968 29.273,0 l 0,11.047 c 0.028,0.208 0.196,0.908 0.436,1.351 0.705,1.325 2.609,2.546 3.241,2.106 0.398,-0.741 1.178,-1.246 2.079,-1.246 1.3,0 2.356,1.055 2.356,2.356 0,0.267 -0.047,0.522 -0.129,0.762 -0.239,0.906 -1.081,1.737 -2.528,1.737 m -64.325,-1.562 c -5.32,3.378 -6.593,4.853 -7.023,7.365 -0.554,3.237 2.148,5.722 5.644,5.722 1.148,0 5.876,-0.436 5.983,-6.852 l 1.278,0 0,6.662 c -2.057,0.764 -5.034,1.542 -7.982,1.542 -5.146,0 -9.329,-2.977 -9.329,-8.564 0,-4.437 4.33,-6.891 8.039,-9.076 5.707,-3.623 6.752,-5.251 6.79,-7.986 0,-4.067 -3.073,-6.359 -6.558,-6.359 -1.554,0 -2.95,0.475 -4.017,1.368 -0.408,0.474 0.206,0.98 0.206,0.98 0.637,0.67 1.003,1.592 0.93,2.587 -0.136,1.87 -1.765,3.277 -3.637,3.141 -1.871,-0.136 -3.277,-1.764 -3.141,-3.635 0.04,-0.535 0.203,-1.066 0.455,-1.461 1.867,-2.967 5.458,-4.668 9.204,-4.668 5.518,0 10.762,3.475 10.762,9.469 0,4.758 -3.625,7.422 -7.604,9.765 M 113.281,0 l -0.007,6.437 0,2.933 c 0.003,2.405 -0.282,4.678 -2.32,6.578 -1.371,1.323 -2.784,2 -4.685,2 -1.843,0 -4.597,-1.038 -6.349,-3.065 l -0.5,2.648 -5.242,0 0,-1.342 c 0.019,-0.003 1.895,0.22 1.895,-1.867 L 96.076,0.008 c 0,-0.864 -2.568,-1.274 -2.586,-1.277 l 0,-0.996 9.033,0 0,0.996 C 102.505,-1.266 99.945,-0.968 99.945,0 l 0,11.731 c 0.11,0.649 0.471,1.339 0.841,1.789 1.43,1.637 3.223,1.88 4.163,1.88 1.105,0 2.035,-0.396 2.931,-1.248 1.236,-1.149 1.546,-2.837 1.546,-5.549 l 0,-8.595 c 0,-0.864 -2.568,-1.274 -2.586,-1.277 l 0,-0.996 9.018,0 0,0.996 c -0.017,0.003 -2.577,0.301 -2.577,1.269 M 19.8,3.51 19.711,3.356 C 18.929,1.84 16.783,0.311 14.115,0.311 c -3.639,0 -6.219,3.337 -6.219,7.763 0,0.944 0.038,1.633 0.111,2.052 l 12.426,0 c 0,7.635 -6.238,7.826 -7.32,7.826 -1.084,0 -3.885,-0.283 -6.039,-2.488 -2.566,-2.565 -3.033,-5.76 -3.033,-7.436 0,-3.35 0.565,-5.073 2.139,-7.367 1.99,-2.905 5.467,-3.339 7.362,-3.339 3.814,0 6.408,2.754 7.468,5.112 0.047,0.107 0.083,0.204 0.111,0.297 L 21.159,2.864 19.921,3.433 19.8,3.51 Z m -6.903,12.743 c 2.958,0 3.934,-3.109 3.934,-3.939 l -0.011,-0.489 -8.554,0 c 0.788,2.858 2.427,4.428 4.631,4.428"
             id="path7755"
             style="fill:#fff;fill-opacity:1;fill-rule:nonzero;stroke:none" />
        </g>
      </g>
    </g>
  </g>
</svg>
